<svg width="278" height="278" viewBox="0 0 278 278" fill="none" xmlns="http://www.w3.org/2000/svg">
<path d="M138.514 45.2857C113.437 45.4143 89.4341 55.483 71.7698 73.2837C54.1055 91.0844 44.2217 115.164 44.286 140.242C44.3503 165.319 54.3575 189.348 72.1128 207.058C89.8681 224.768 113.922 234.713 139 234.713C164.078 234.713 188.132 224.768 205.887 207.058C223.643 189.348 233.65 165.319 233.714 140.242C233.778 115.164 223.894 91.0844 206.23 73.2837C188.566 55.483 164.563 45.4143 139.486 45.2857H138.514Z" stroke="black" stroke-width="8"/>
<path d="M139 45.2857V234.714M233.714 140H44.2857M65.6571 81.7143C87.0639 96.9862 112.704 105.195 139 105.195C165.296 105.195 190.936 96.9862 212.343 81.7143M212.343 198.286C190.936 183.014 165.296 174.805 139 174.805C112.704 174.805 87.0639 183.014 65.6571 198.286M131.714 47.7143C118.217 59.113 107.37 73.3195 99.929 89.3425C92.4882 105.366 88.6334 122.819 88.6334 140.486C88.6334 158.152 92.4882 175.606 99.929 191.629C107.37 207.652 118.217 221.858 131.714 233.257M146.286 233.257C159.783 221.858 170.63 207.652 178.071 191.629C185.512 175.606 189.367 158.152 189.367 140.486C189.367 122.819 185.512 105.366 178.071 89.3425C170.63 73.3195 159.783 59.113 146.286 47.7143" stroke="black" stroke-width="8"/>
<path d="M45.5064 166L30.728 113.636H40.9297L50.3643 152.116H50.8501L60.924 113.636H70.2052L80.3047 152.142H80.7649L90.1996 113.636H100.401L85.6229 166H76.2649L65.7819 129.259H65.3729L54.8643 166H45.5064ZM119.439 166L104.66 113.636H114.862L124.297 152.116H124.782L134.856 113.636H144.137L154.237 152.142H154.697L164.132 113.636H174.333L159.555 166H150.197L139.714 129.259H139.305L128.797 166H119.439ZM193.371 166L178.592 113.636H188.794L198.229 152.116H198.715L208.788 113.636H218.07L228.169 152.142H228.629L238.064 113.636H248.266L233.487 166H224.129L213.646 129.259H213.237L202.729 166H193.371Z" fill="white"/>
<path d="M45.5064 166L43.5816 166.543L43.9927 168H45.5064V166ZM30.728 113.636V111.636H28.0854L28.8032 114.18L30.728 113.636ZM40.9297 113.636L42.8721 113.16L42.4985 111.636H40.9297V113.636ZM50.3643 152.116L48.4219 152.593L48.7955 154.116H50.3643V152.116ZM50.8501 152.116V154.116H52.3939L52.7849 152.623L50.8501 152.116ZM60.924 113.636V111.636H59.3802L58.9892 113.13L60.924 113.636ZM70.2052 113.636L72.1398 113.129L71.7483 111.636H70.2052V113.636ZM80.3047 152.142L78.3701 152.649L78.7616 154.142H80.3047V152.142ZM80.7649 152.142V154.142H82.334L82.7074 152.618L80.7649 152.142ZM90.1996 113.636V111.636H88.6304L88.257 113.16L90.1996 113.636ZM100.401 113.636L102.326 114.18L103.044 111.636H100.401V113.636ZM85.6229 166V168H87.1365L87.5477 166.543L85.6229 166ZM76.2649 166L74.3417 166.549L74.7557 168H76.2649V166ZM65.7819 129.259L67.7052 128.71L67.2911 127.259H65.7819V129.259ZM65.3729 129.259V127.259H63.8647L63.45 128.709L65.3729 129.259ZM54.8643 166V168H56.3725L56.7872 166.55L54.8643 166ZM47.4312 165.457L32.6528 113.093L28.8032 114.18L43.5816 166.543L47.4312 165.457ZM30.728 115.636H40.9297V111.636H30.728V115.636ZM38.9872 114.113L48.4219 152.593L52.3068 151.64L42.8721 113.16L38.9872 114.113ZM50.3643 154.116H50.8501V150.116H50.3643V154.116ZM52.7849 152.623L62.8588 114.143L58.9892 113.13L48.9153 151.61L52.7849 152.623ZM60.924 115.636H70.2052V111.636H60.924V115.636ZM68.2707 114.144L78.3701 152.649L82.2392 151.635L72.1398 113.129L68.2707 114.144ZM80.3047 154.142H80.7649V150.142H80.3047V154.142ZM82.7074 152.618L92.1421 114.112L88.257 113.16L78.8224 151.666L82.7074 152.618ZM90.1996 115.636H100.401V111.636H90.1996V115.636ZM98.4765 113.093L83.698 165.457L87.5477 166.543L102.326 114.18L98.4765 113.093ZM85.6229 164H76.2649V168H85.6229V164ZM78.1882 165.451L67.7052 128.71L63.8587 129.807L74.3417 166.549L78.1882 165.451ZM65.7819 127.259H65.3729V131.259H65.7819V127.259ZM63.45 128.709L52.9414 165.45L56.7872 166.55L67.2958 129.808L63.45 128.709ZM54.8643 164H45.5064V168H54.8643V164ZM119.439 166L117.514 166.543L117.925 168H119.439V166ZM104.66 113.636V111.636H102.018L102.735 114.18L104.66 113.636ZM114.862 113.636L116.804 113.16L116.431 111.636H114.862V113.636ZM124.297 152.116L122.354 152.593L122.728 154.116H124.297V152.116ZM124.782 152.116V154.116H126.326L126.717 152.623L124.782 152.116ZM134.856 113.636V111.636H133.312L132.921 113.13L134.856 113.636ZM144.137 113.636L146.072 113.129L145.681 111.636H144.137V113.636ZM154.237 152.142L152.302 152.649L152.694 154.142H154.237V152.142ZM154.697 152.142V154.142H156.266L156.64 152.618L154.697 152.142ZM164.132 113.636V111.636H162.563L162.189 113.16L164.132 113.636ZM174.333 113.636L176.258 114.18L176.976 111.636H174.333V113.636ZM159.555 166V168H161.069L161.48 166.543L159.555 166ZM150.197 166L148.274 166.549L148.688 168H150.197V166ZM139.714 129.259L141.637 128.71L141.223 127.259H139.714V129.259ZM139.305 129.259V127.259H137.797L137.382 128.709L139.305 129.259ZM128.797 166V168H130.305L130.719 166.55L128.797 166ZM121.363 165.457L106.585 113.093L102.735 114.18L117.514 166.543L121.363 165.457ZM104.66 115.636H114.862V111.636H104.66V115.636ZM112.919 114.113L122.354 152.593L126.239 151.64L116.804 113.16L112.919 114.113ZM124.297 154.116H124.782V150.116H124.297V154.116ZM126.717 152.623L136.791 114.143L132.921 113.13L122.848 151.61L126.717 152.623ZM134.856 115.636H144.137V111.636H134.856V115.636ZM142.203 114.144L152.302 152.649L156.171 151.635L146.072 113.129L142.203 114.144ZM154.237 154.142H154.697V150.142H154.237V154.142ZM156.64 152.618L166.074 114.112L162.189 113.16L152.755 151.666L156.64 152.618ZM164.132 115.636H174.333V111.636H164.132V115.636ZM172.409 113.093L157.63 165.457L161.48 166.543L176.258 114.18L172.409 113.093ZM159.555 164H150.197V168H159.555V164ZM152.12 165.451L141.637 128.71L137.791 129.807L148.274 166.549L152.12 165.451ZM139.714 127.259H139.305V131.259H139.714V127.259ZM137.382 128.709L126.874 165.45L130.719 166.55L141.228 129.808L137.382 128.709ZM128.797 164H119.439V168H128.797V164ZM193.371 166L191.446 166.543L191.857 168H193.371V166ZM178.592 113.636V111.636H175.95L176.668 114.18L178.592 113.636ZM188.794 113.636L190.737 113.16L190.363 111.636H188.794V113.636ZM198.229 152.116L196.286 152.593L196.66 154.116H198.229V152.116ZM198.715 152.116V154.116H200.258L200.649 152.623L198.715 152.116ZM208.788 113.636V111.636H207.245L206.854 113.13L208.788 113.636ZM218.07 113.636L220.004 113.129L219.613 111.636H218.07V113.636ZM228.169 152.142L226.234 152.649L226.626 154.142H228.169V152.142ZM228.629 152.142V154.142H230.198L230.572 152.618L228.629 152.142ZM238.064 113.636V111.636H236.495L236.121 113.16L238.064 113.636ZM248.266 113.636L250.19 114.18L250.908 111.636H248.266V113.636ZM233.487 166V168H235.001L235.412 166.543L233.487 166ZM224.129 166L222.206 166.549L222.62 168H224.129V166ZM213.646 129.259L215.57 128.71L215.156 127.259H213.646V129.259ZM213.237 129.259V127.259H211.729L211.314 128.709L213.237 129.259ZM202.729 166V168H204.237L204.652 166.55L202.729 166ZM195.296 165.457L180.517 113.093L176.668 114.18L191.446 166.543L195.296 165.457ZM178.592 115.636H188.794V111.636H178.592V115.636ZM186.852 114.113L196.286 152.593L200.171 151.64L190.737 113.16L186.852 114.113ZM198.229 154.116H198.715V150.116H198.229V154.116ZM200.649 152.623L210.723 114.143L206.854 113.13L196.78 151.61L200.649 152.623ZM208.788 115.636H218.07V111.636H208.788V115.636ZM216.135 114.144L226.234 152.649L230.104 151.635L220.004 113.129L216.135 114.144ZM228.169 154.142H228.629V150.142H228.169V154.142ZM230.572 152.618L240.006 114.112L236.121 113.16L226.687 151.666L230.572 152.618ZM238.064 115.636H248.266V111.636H238.064V115.636ZM246.341 113.093L231.562 165.457L235.412 166.543L250.19 114.18L246.341 113.093ZM233.487 164H224.129V168H233.487V164ZM226.053 165.451L215.57 128.71L211.723 129.807L222.206 166.549L226.053 165.451ZM213.646 127.259H213.237V131.259H213.646V127.259ZM211.314 128.709L200.806 165.45L204.652 166.55L215.16 129.808L211.314 128.709ZM202.729 164H193.371V168H202.729V164Z" fill="black"/>
</svg>
