<svg width="390" height="246" viewBox="0 0 390 246" fill="none" xmlns="http://www.w3.org/2000/svg">
<path d="M26.9843 148.615L26.9926 148.618L27.0009 148.622C33.1251 151.393 40.1359 152.749 47.9877 152.749C54.7012 152.749 60.9551 151.749 66.7322 149.727L66.7455 149.722L66.7587 149.718C71.3695 148.031 75.6714 145.73 79.661 142.82V148.879V150.879H81.661H96.627H98.627V148.879V78.8297C98.627 66.7528 94.87 57.2078 87.134 50.5094C79.5793 43.8476 68.9252 40.662 55.4706 40.662C48.9203 40.662 42.3763 41.5167 35.8426 43.2211C29.316 44.9237 22.2646 47.6079 14.6938 51.253L12.8776 52.1275L13.7664 53.9368L19.5864 65.7849L20.4824 67.6087L22.2918 66.6839C28.4404 63.5413 33.9897 61.3145 38.9479 59.9744L38.9651 59.9698L38.9822 59.9648C44.0797 58.4892 49.0891 57.7572 54.0156 57.7572C62.7296 57.7572 69.031 59.8354 73.2463 63.6788L73.2583 63.6898L73.2705 63.7006C77.4238 67.3652 79.661 72.9717 79.661 80.9083V91.4397C70.9766 87.5119 61.4486 85.5598 51.1056 85.5598C38.0741 85.5598 27.4848 88.4635 19.5486 94.4892C11.5407 100.569 7.53352 108.933 7.53352 119.362C7.53352 125.958 9.22524 131.83 12.6577 136.904L12.6689 136.921L12.6804 136.937C16.2252 141.959 21.0132 145.848 26.9843 148.615ZM67.3928 102.786L67.4184 102.793L67.4442 102.8C71.7363 103.904 75.807 105.692 79.661 108.174V125.798C75.8434 129.475 71.633 132.17 67.0266 133.913C62.1544 135.756 56.7168 136.693 50.6899 136.693C43.2535 136.693 37.3278 134.973 32.7633 131.686C28.3912 128.304 26.2916 124.1 26.2916 118.947C26.2916 113.475 28.4227 109.224 32.7594 106.002L32.7667 105.997C37.3098 102.589 43.4964 100.784 51.5213 100.784C57.47 100.784 62.7541 101.461 67.3928 102.786ZM126.56 148.879V150.879H128.56H143.941H145.941V148.879V44.7406V42.7406H143.941H128.56H126.56V44.7406V148.879ZM174.408 148.879V150.879H176.408H191.79H193.79V148.879V44.7406V42.7406H191.79H176.408H174.408V44.7406V148.879ZM184.099 26.786C187.537 26.786 190.488 25.5358 192.812 23.0581C195.225 20.6345 196.492 17.7185 196.492 14.393C196.492 10.9666 195.25 8.02394 192.789 5.70297C190.468 3.24182 187.525 2 184.099 2C180.773 2 177.857 3.26678 175.434 5.67945C172.956 8.00406 171.706 10.955 171.706 14.393C171.706 17.7296 172.981 20.6539 175.409 23.0823C177.838 25.5108 180.762 26.786 184.099 26.786ZM222.256 148.879V150.879H224.256H239.638H241.638V148.879V71.9386C244.609 67.428 248.087 64.0952 252.051 61.8654L252.06 61.8605L252.068 61.8555C256.322 59.4063 261.033 58.1729 266.244 58.1729C273.931 58.1729 279.874 60.6894 284.295 65.6153L284.303 65.6249L284.312 65.6344C288.731 70.4317 291.058 77.1688 291.058 86.1048V148.879V150.879H293.058H308.232H310.232V148.879V82.9869C310.232 81.1212 310.091 79.3692 309.801 77.7371C309.681 76.3155 309.51 74.938 309.29 73.6052C312.4 68.4786 316.068 64.7292 320.263 62.2619L320.281 62.2509L320.3 62.2396C324.687 59.5299 329.518 58.1729 334.838 58.1729C342.676 58.1729 348.682 60.6969 353.096 65.6153L353.105 65.6249L353.114 65.6344C357.532 70.4317 359.86 77.1688 359.86 86.1048V148.879V150.879H361.86H377.034H379.034V148.879V82.9869C379.034 74.6799 377.315 67.3427 373.805 61.0425C370.456 54.6452 365.773 49.6609 359.768 46.1415C353.733 42.4658 346.715 40.662 338.787 40.662C330.886 40.662 323.77 42.315 317.49 45.6706C312.024 48.4706 307.258 52.5771 303.183 57.9359C299.992 53.0606 295.846 49.1227 290.758 46.1415C284.735 42.4728 277.859 40.662 270.194 40.662C258.936 40.662 249.381 44.1995 241.638 51.2718V44.7406V42.7406H239.638H224.256H222.256V44.7406V148.879ZM127.561 23.0823C129.989 25.5108 132.914 26.786 136.25 26.786C139.688 26.786 142.639 25.5357 144.964 23.0578C147.377 20.6342 148.643 17.7184 148.643 14.393C148.643 10.9666 147.402 8.02395 144.94 5.70297C142.619 3.24182 139.677 2 136.25 2C132.925 2 130.009 3.26678 127.585 5.67945C125.108 8.00405 123.857 10.955 123.857 14.393C123.857 17.7296 125.133 20.6539 127.561 23.0823Z" fill="white" stroke="#000066" stroke-width="4"/>
<path d="M7.21016 199.029C5.78112 199.029 4.52096 198.782 3.4297 198.289C2.36441 197.795 1.51998 197.106 0.896398 196.223C0.298799 195.34 0 194.313 0 193.144C0 191.299 0.701529 189.844 2.10459 188.779C3.50764 187.714 5.40437 187.181 7.79476 187.181C9.89935 187.181 11.8091 187.623 13.5239 188.506V185.934C13.5239 184.375 13.0822 183.206 12.1988 182.426C11.3154 181.621 10.0293 181.218 8.3404 181.218C7.37904 181.218 6.4047 181.361 5.41736 181.647C4.45601 181.907 3.39072 182.335 2.22151 182.933L1.13024 180.711C2.5333 180.036 3.83242 179.542 5.02762 179.23C6.22282 178.919 7.41802 178.763 8.61321 178.763C11.0816 178.763 12.9783 179.347 14.3034 180.517C15.6545 181.686 16.33 183.362 16.33 185.544V198.678H13.5239V196.769C12.6405 197.522 11.6662 198.094 10.6009 198.484C9.56158 198.847 8.43133 199.029 7.21016 199.029ZM2.76714 193.066C2.76714 194.157 3.22184 195.054 4.13122 195.755C5.0666 196.431 6.26179 196.769 7.71681 196.769C8.88603 196.769 9.95131 196.587 10.9127 196.223C11.874 195.859 12.7444 195.288 13.5239 194.508V190.845C12.7185 190.299 11.861 189.909 10.9516 189.675C10.0423 189.416 9.01594 189.286 7.87271 189.286C6.31376 189.286 5.0666 189.636 4.13122 190.338C3.22184 191.014 2.76714 191.923 2.76714 193.066Z" fill="#000066"/>
<path d="M22.3174 198.678V179.153H25.2014V181.92C25.799 180.906 26.5525 180.127 27.4619 179.581C28.3973 179.01 29.4626 178.724 30.6578 178.724C31.3333 178.724 31.9439 178.815 32.4895 178.997V181.647C32.1518 181.517 31.814 181.426 31.4762 181.374C31.1385 181.322 30.8007 181.296 30.4629 181.296C29.2677 181.296 28.2154 181.647 27.306 182.348C26.4226 183.024 25.7211 184.011 25.2014 185.31V198.678H22.3174Z" fill="#000066"/>
<path d="M44.6378 199.068C42.9489 199.068 41.6498 198.665 40.7404 197.86C39.831 197.055 39.3763 195.885 39.3763 194.352V181.608H35.1672V179.153H39.3763V174.203L42.2214 173.462V179.153H48.1065V181.608H42.2214V193.612C42.2214 194.651 42.4553 195.405 42.923 195.872C43.3906 196.314 44.1571 196.535 45.2224 196.535C45.768 196.535 46.2487 196.496 46.6644 196.418C47.1061 196.34 47.5738 196.21 48.0675 196.028V198.561C47.5738 198.743 47.0152 198.873 46.3916 198.951C45.794 199.029 45.2094 199.068 44.6378 199.068Z" fill="#000066"/>
<path d="M52.3638 198.678V179.153H55.2478V198.678H52.3638ZM53.8058 175.411C53.2861 175.411 52.8314 175.216 52.4417 174.826C52.052 174.437 51.8571 173.982 51.8571 173.462C51.8571 172.917 52.052 172.462 52.4417 172.098C52.8314 171.709 53.2861 171.514 53.8058 171.514C54.3514 171.514 54.8061 171.709 55.1699 172.098C55.5596 172.462 55.7545 172.917 55.7545 173.462C55.7545 173.982 55.5596 174.437 55.1699 174.826C54.8061 175.216 54.3514 175.411 53.8058 175.411Z" fill="#000066"/>
<path d="M64.1415 198.678V181.608H59.5425V179.153H64.1415V175.45C64.1415 173.527 64.6611 172.059 65.7004 171.046C66.7397 170.033 68.2337 169.526 70.1824 169.526C70.702 169.526 71.1697 169.552 71.5855 169.604C72.0012 169.656 72.4039 169.747 72.7936 169.877V172.449C72.3519 172.319 71.9492 172.228 71.5855 172.176C71.2217 172.098 70.819 172.059 70.3773 172.059C69.234 172.059 68.3766 172.345 67.805 172.917C67.2594 173.462 66.9865 174.333 66.9865 175.528V179.153H72.7936V181.608H66.9865V198.678H64.1415Z" fill="#000066"/>
<path d="M77.0817 198.678V179.153H79.9657V198.678H77.0817ZM78.5237 175.411C78.0041 175.411 77.5494 175.216 77.1596 174.826C76.7699 174.437 76.575 173.982 76.575 173.462C76.575 172.917 76.7699 172.462 77.1596 172.098C77.5494 171.709 78.0041 171.514 78.5237 171.514C79.0693 171.514 79.524 171.709 79.8878 172.098C80.2775 172.462 80.4724 172.917 80.4724 173.462C80.4724 173.982 80.2775 174.437 79.8878 174.826C79.524 175.216 79.0693 175.411 78.5237 175.411Z" fill="#000066"/>
<path d="M95.0952 199.029C93.2504 199.029 91.5746 198.587 90.0676 197.704C88.5606 196.795 87.3654 195.573 86.482 194.041C85.5986 192.508 85.1569 190.793 85.1569 188.896C85.1569 186.999 85.5986 185.297 86.482 183.79C87.3654 182.257 88.5606 181.036 90.0676 180.127C91.5746 179.217 93.2504 178.763 95.0952 178.763C96.5242 178.763 97.9013 179.036 99.2264 179.581C100.552 180.101 101.721 180.854 102.734 181.842L100.902 183.946C100.123 183.115 99.2264 182.491 98.2131 182.076C97.2258 181.634 96.1994 181.413 95.1342 181.413C93.8091 181.413 92.6009 181.751 91.5096 182.426C90.4443 183.076 89.5869 183.972 88.9373 185.116C88.3137 186.233 88.002 187.493 88.002 188.896C88.002 190.299 88.3137 191.572 88.9373 192.715C89.5869 193.859 90.4573 194.768 91.5486 195.444C92.6398 196.093 93.848 196.418 95.1731 196.418C96.2384 196.418 97.2387 196.21 98.1741 195.794C99.1355 195.379 100.032 194.768 100.863 193.963L102.656 195.911C101.617 196.899 100.448 197.665 99.1485 198.211C97.8493 198.756 96.4982 199.029 95.0952 199.029Z" fill="#000066"/>
<path d="M107.204 198.678V179.153H110.088V198.678H107.204ZM108.646 175.411C108.127 175.411 107.672 175.216 107.282 174.826C106.892 174.437 106.697 173.982 106.697 173.462C106.697 172.917 106.892 172.462 107.282 172.098C107.672 171.709 108.127 171.514 108.646 171.514C109.192 171.514 109.647 171.709 110.01 172.098C110.4 172.462 110.595 172.917 110.595 173.462C110.595 173.982 110.4 174.437 110.01 174.826C109.647 175.216 109.192 175.411 108.646 175.411Z" fill="#000066"/>
<path d="M122.334 199.029C120.905 199.029 119.644 198.782 118.553 198.289C117.488 197.795 116.643 197.106 116.02 196.223C115.422 195.34 115.123 194.313 115.123 193.144C115.123 191.299 115.825 189.844 117.228 188.779C118.631 187.714 120.528 187.181 122.918 187.181C125.023 187.181 126.933 187.623 128.647 188.506V185.934C128.647 184.375 128.206 183.206 127.322 182.426C126.439 181.621 125.153 181.218 123.464 181.218C122.503 181.218 121.528 181.361 120.541 181.647C119.579 181.907 118.514 182.335 117.345 182.933L116.254 180.711C117.657 180.036 118.956 179.542 120.151 179.23C121.346 178.919 122.541 178.763 123.737 178.763C126.205 178.763 128.102 179.347 129.427 180.517C130.778 181.686 131.453 183.362 131.453 185.544V198.678H128.647V196.769C127.764 197.522 126.79 198.094 125.724 198.484C124.685 198.847 123.555 199.029 122.334 199.029ZM117.891 193.066C117.891 194.157 118.345 195.054 119.255 195.755C120.19 196.431 121.385 196.769 122.84 196.769C124.009 196.769 125.075 196.587 126.036 196.223C126.997 195.859 127.868 195.288 128.647 194.508V190.845C127.842 190.299 126.984 189.909 126.075 189.675C125.166 189.416 124.139 189.286 122.996 189.286C121.437 189.286 120.19 189.636 119.255 190.338C118.345 191.014 117.891 191.923 117.891 193.066Z" fill="#000066"/>
<path d="M137.441 198.678V171.397L140.325 170.734V198.678H137.441Z" fill="#000066"/>
<path d="M184.582 198.678V179.153H187.466V198.678H184.582ZM186.024 175.411C185.505 175.411 185.05 175.216 184.66 174.826C184.271 174.437 184.076 173.982 184.076 173.462C184.076 172.917 184.271 172.462 184.66 172.098C185.05 171.709 185.505 171.514 186.024 171.514C186.57 171.514 187.025 171.709 187.389 172.098C187.778 172.462 187.973 172.917 187.973 173.462C187.973 173.982 187.778 174.437 187.389 174.826C187.025 175.216 186.57 175.411 186.024 175.411Z" fill="#000066"/>
<path d="M193.554 198.678V179.153H196.438V181.452C197.971 179.659 200.024 178.763 202.596 178.763C204.077 178.763 205.376 179.088 206.493 179.737C207.637 180.361 208.52 181.244 209.144 182.387C209.793 183.505 210.118 184.817 210.118 186.324V198.678H207.273V186.908C207.273 185.167 206.779 183.803 205.792 182.816C204.83 181.803 203.505 181.296 201.816 181.296C200.647 181.296 199.608 181.556 198.699 182.076C197.789 182.595 197.036 183.336 196.438 184.297V198.678H193.554Z" fill="#000066"/>
<path d="M218.348 198.678V181.608H213.749V179.153H218.348V175.45C218.348 173.527 218.868 172.059 219.907 171.046C220.947 170.033 222.441 169.526 224.389 169.526C224.909 169.526 225.377 169.552 225.792 169.604C226.208 169.656 226.611 169.747 227.001 169.877V172.449C226.559 172.319 226.156 172.228 225.792 172.176C225.429 172.098 225.026 172.059 224.584 172.059C223.441 172.059 222.583 172.345 222.012 172.917C221.466 173.462 221.193 174.333 221.193 175.528V179.153H227.001V181.608H221.193V198.678H218.348Z" fill="#000066"/>
<path d="M239.38 199.068C237.535 199.068 235.846 198.626 234.313 197.743C232.806 196.834 231.611 195.612 230.728 194.079C229.844 192.547 229.403 190.832 229.403 188.935C229.403 187.038 229.844 185.323 230.728 183.79C231.611 182.257 232.806 181.049 234.313 180.166C235.846 179.256 237.535 178.802 239.38 178.802C241.251 178.802 242.94 179.256 244.446 180.166C245.953 181.049 247.149 182.257 248.032 183.79C248.915 185.323 249.357 187.038 249.357 188.935C249.357 190.832 248.915 192.547 248.032 194.079C247.149 195.612 245.953 196.834 244.446 197.743C242.94 198.626 241.251 199.068 239.38 199.068ZM239.38 196.496C240.705 196.496 241.9 196.158 242.965 195.483C244.057 194.807 244.914 193.898 245.538 192.754C246.187 191.611 246.512 190.338 246.512 188.935C246.512 187.506 246.187 186.233 245.538 185.116C244.914 183.972 244.057 183.063 242.965 182.387C241.9 181.712 240.705 181.374 239.38 181.374C238.055 181.374 236.847 181.712 235.755 182.387C234.69 183.063 233.833 183.972 233.183 185.116C232.559 186.233 232.248 187.506 232.248 188.935C232.248 190.338 232.559 191.611 233.183 192.754C233.833 193.898 234.69 194.807 235.755 195.483C236.847 196.158 238.055 196.496 239.38 196.496Z" fill="#000066"/>
<path d="M254.533 198.678V179.153H257.417V181.92C258.014 180.906 258.768 180.127 259.677 179.581C260.613 179.01 261.678 178.724 262.873 178.724C263.549 178.724 264.159 178.815 264.705 178.997V181.647C264.367 181.517 264.029 181.426 263.692 181.374C263.354 181.322 263.016 181.296 262.678 181.296C261.483 181.296 260.431 181.647 259.521 182.348C258.638 183.024 257.936 184.011 257.417 185.31V198.678H254.533Z" fill="#000066"/>
<path d="M269.175 198.678V179.153H272.059V181.296C273.54 179.607 275.45 178.763 277.789 178.763C279.166 178.763 280.387 179.088 281.452 179.737C282.517 180.361 283.349 181.218 283.946 182.309C284.752 181.114 285.713 180.231 286.831 179.659C287.948 179.062 289.221 178.763 290.65 178.763C292.079 178.763 293.326 179.088 294.391 179.737C295.457 180.361 296.288 181.244 296.886 182.387C297.509 183.505 297.821 184.817 297.821 186.324V198.678H294.976V186.908C294.976 185.167 294.521 183.803 293.612 182.816C292.703 181.803 291.468 181.296 289.909 181.296C288.844 181.296 287.87 181.569 286.986 182.115C286.103 182.634 285.35 183.427 284.726 184.492C284.778 184.778 284.817 185.077 284.843 185.388C284.895 185.674 284.921 185.986 284.921 186.324V198.678H282.076V186.908C282.076 185.167 281.621 183.803 280.712 182.816C279.802 181.803 278.581 181.296 277.048 181.296C276.009 181.296 275.06 181.543 274.203 182.037C273.372 182.504 272.657 183.206 272.059 184.141V198.678H269.175Z" fill="#000066"/>
<path d="M309.996 199.029C308.567 199.029 307.306 198.782 306.215 198.289C305.15 197.795 304.305 197.106 303.682 196.223C303.084 195.34 302.785 194.313 302.785 193.144C302.785 191.299 303.487 189.844 304.89 188.779C306.293 187.714 308.19 187.181 310.58 187.181C312.685 187.181 314.594 187.623 316.309 188.506V185.934C316.309 184.375 315.868 183.206 314.984 182.426C314.101 181.621 312.815 181.218 311.126 181.218C310.164 181.218 309.19 181.361 308.203 181.647C307.241 181.907 306.176 182.335 305.007 182.933L303.916 180.711C305.319 180.036 306.618 179.542 307.813 179.23C309.008 178.919 310.203 178.763 311.399 178.763C313.867 178.763 315.764 179.347 317.089 180.517C318.44 181.686 319.115 183.362 319.115 185.544V198.678H316.309V196.769C315.426 197.522 314.452 198.094 313.386 198.484C312.347 198.847 311.217 199.029 309.996 199.029ZM305.553 193.066C305.553 194.157 306.007 195.054 306.917 195.755C307.852 196.431 309.047 196.769 310.502 196.769C311.671 196.769 312.737 196.587 313.698 196.223C314.659 195.859 315.53 195.288 316.309 194.508V190.845C315.504 190.299 314.646 189.909 313.737 189.675C312.828 189.416 311.801 189.286 310.658 189.286C309.099 189.286 307.852 189.636 306.917 190.338C306.007 191.014 305.553 191.923 305.553 193.066Z" fill="#000066"/>
<path d="M332.21 199.068C330.521 199.068 329.222 198.665 328.312 197.86C327.403 197.055 326.948 195.885 326.948 194.352V181.608H322.739V179.153H326.948V174.203L329.793 173.462V179.153H335.678V181.608H329.793V193.612C329.793 194.651 330.027 195.405 330.495 195.872C330.963 196.314 331.729 196.535 332.794 196.535C333.34 196.535 333.821 196.496 334.236 196.418C334.678 196.34 335.146 196.21 335.639 196.028V198.561C335.146 198.743 334.587 198.873 333.964 198.951C333.366 199.029 332.781 199.068 332.21 199.068Z" fill="#000066"/>
<path d="M339.936 198.678V179.153H342.82V198.678H339.936ZM341.378 175.411C340.858 175.411 340.403 175.216 340.014 174.826C339.624 174.437 339.429 173.982 339.429 173.462C339.429 172.917 339.624 172.462 340.014 172.098C340.403 171.709 340.858 171.514 341.378 171.514C341.923 171.514 342.378 171.709 342.742 172.098C343.132 172.462 343.326 172.917 343.326 173.462C343.326 173.982 343.132 174.437 342.742 174.826C342.378 175.216 341.923 175.411 341.378 175.411Z" fill="#000066"/>
<path d="M357.988 199.068C356.143 199.068 354.455 198.626 352.922 197.743C351.415 196.834 350.219 195.612 349.336 194.079C348.453 192.547 348.011 190.832 348.011 188.935C348.011 187.038 348.453 185.323 349.336 183.79C350.219 182.257 351.415 181.049 352.922 180.166C354.455 179.256 356.143 178.802 357.988 178.802C359.859 178.802 361.548 179.256 363.055 180.166C364.562 181.049 365.757 182.257 366.64 183.79C367.524 185.323 367.965 187.038 367.965 188.935C367.965 190.832 367.524 192.547 366.64 194.079C365.757 195.612 364.562 196.834 363.055 197.743C361.548 198.626 359.859 199.068 357.988 199.068ZM357.988 196.496C359.313 196.496 360.508 196.158 361.574 195.483C362.665 194.807 363.522 193.898 364.146 192.754C364.796 191.611 365.12 190.338 365.12 188.935C365.12 187.506 364.796 186.233 364.146 185.116C363.522 183.972 362.665 183.063 361.574 182.387C360.508 181.712 359.313 181.374 357.988 181.374C356.663 181.374 355.455 181.712 354.364 182.387C353.298 183.063 352.441 183.972 351.791 185.116C351.168 186.233 350.856 187.506 350.856 188.935C350.856 190.338 351.168 191.611 351.791 192.754C352.441 193.898 353.298 194.807 354.364 195.483C355.455 196.158 356.663 196.496 357.988 196.496Z" fill="#000066"/>
<path d="M373.141 198.678V179.153H376.025V181.452C377.558 179.659 379.611 178.763 382.183 178.763C383.664 178.763 384.963 179.088 386.08 179.737C387.224 180.361 388.107 181.244 388.731 182.387C389.38 183.505 389.705 184.817 389.705 186.324V198.678H386.86V186.908C386.86 185.167 386.366 183.803 385.379 182.816C384.417 181.803 383.092 181.296 381.404 181.296C380.234 181.296 379.195 181.556 378.286 182.076C377.376 182.595 376.623 183.336 376.025 184.297V198.678H373.141Z" fill="#000066"/>
<path d="M4.69543 237.652V218.126H7.57949V237.652H4.69543ZM6.13746 214.385C5.61781 214.385 5.16312 214.19 4.77338 213.8C4.38364 213.411 4.18877 212.956 4.18877 212.436C4.18877 211.891 4.38364 211.436 4.77338 211.072C5.16312 210.682 5.61781 210.487 6.13746 210.487C6.6831 210.487 7.13779 210.682 7.50155 211.072C7.89129 211.436 8.08615 211.891 8.08615 212.436C8.08615 212.956 7.89129 213.411 7.50155 213.8C7.13779 214.19 6.6831 214.385 6.13746 214.385Z" fill="#000066"/>
<path d="M13.667 237.652V218.126H16.5511V220.426C18.0841 218.633 20.1367 217.737 22.7089 217.737C24.19 217.737 25.4891 218.061 26.6063 218.711C27.7496 219.335 28.633 220.218 29.2565 221.361C29.9061 222.478 30.2309 223.791 30.2309 225.298V237.652H27.3858V225.882C27.3858 224.141 26.8921 222.777 25.9048 221.79C24.9434 220.777 23.6183 220.27 21.9295 220.27C20.7603 220.27 19.721 220.53 18.8116 221.049C17.9022 221.569 17.1487 222.31 16.5511 223.271V237.652H13.667Z" fill="#000066"/>
<path d="M43.3331 238.042C41.6442 238.042 40.3451 237.639 39.4357 236.834C38.5263 236.028 38.0716 234.859 38.0716 233.326V220.582H33.8625V218.126H38.0716V213.177L40.9167 212.436V218.126H46.8018V220.582H40.9167V232.586C40.9167 233.625 41.1506 234.378 41.6182 234.846C42.0859 235.288 42.8524 235.509 43.9177 235.509C44.4633 235.509 44.944 235.47 45.3597 235.392C45.8014 235.314 46.2691 235.184 46.7628 235.002V237.535C46.2691 237.717 45.7105 237.847 45.0869 237.925C44.4893 238.003 43.9047 238.042 43.3331 238.042Z" fill="#000066"/>
<path d="M59.8373 238.003C57.9665 238.003 56.2647 237.561 54.7317 236.678C53.2247 235.768 52.0165 234.547 51.1072 233.014C50.2237 231.481 49.782 229.767 49.782 227.87C49.782 225.999 50.2108 224.31 51.0682 222.803C51.9256 221.27 53.0818 220.062 54.5368 219.179C55.9919 218.269 57.6158 217.815 59.4086 217.815C61.1494 217.815 62.7084 218.269 64.0854 219.179C65.4885 220.062 66.5927 221.27 67.3982 222.803C68.2296 224.31 68.6454 225.999 68.6454 227.87V228.766H52.6271C52.783 230.039 53.1858 231.183 53.8353 232.196C54.5109 233.209 55.3813 234.015 56.4466 234.612C57.5118 235.184 58.6811 235.47 59.9542 235.47C60.9675 235.47 61.9549 235.314 62.9162 235.002C63.8776 234.69 64.683 234.249 65.3326 233.677L67.1254 235.587C66.0341 236.392 64.8909 237.003 63.6957 237.418C62.5265 237.808 61.2403 238.003 59.8373 238.003ZM52.7051 226.467H65.7613C65.6054 225.298 65.2157 224.258 64.5921 223.349C63.9945 222.413 63.241 221.686 62.3316 221.166C61.4222 220.621 60.4219 220.348 59.3306 220.348C58.2134 220.348 57.1871 220.608 56.2517 221.127C55.3163 221.647 54.5368 222.374 53.9133 223.31C53.2897 224.219 52.887 225.272 52.7051 226.467Z" fill="#000066"/>
<path d="M73.8465 237.652V210.371L76.7306 209.708V237.652H73.8465Z" fill="#000066"/>
<path d="M82.8181 237.652V210.371L85.7022 209.708V237.652H82.8181Z" fill="#000066"/>
<path d="M91.7897 237.652V218.126H94.6738V237.652H91.7897ZM93.2318 214.385C92.7121 214.385 92.2574 214.19 91.8677 213.8C91.4779 213.411 91.2831 212.956 91.2831 212.436C91.2831 211.891 91.4779 211.436 91.8677 211.072C92.2574 210.682 92.7121 210.487 93.2318 210.487C93.7774 210.487 94.2321 210.682 94.5958 211.072C94.9856 211.436 95.1804 211.891 95.1804 212.436C95.1804 212.956 94.9856 213.411 94.5958 213.8C94.2321 214.19 93.7774 214.385 93.2318 214.385Z" fill="#000066"/>
<path d="M110.271 245.993C108.92 245.993 107.582 245.811 106.257 245.447C104.931 245.109 103.723 244.616 102.632 243.966L103.879 241.705C105.048 242.329 106.127 242.784 107.114 243.07C108.127 243.355 109.141 243.498 110.154 243.498C111.999 243.498 113.402 243.057 114.363 242.173C115.325 241.29 115.805 239.991 115.805 238.276V235.548C114.012 237.055 111.947 237.808 109.608 237.808C107.816 237.808 106.179 237.366 104.698 236.483C103.217 235.6 102.034 234.404 101.151 232.897C100.294 231.364 99.8649 229.663 99.8649 227.792C99.8649 225.921 100.294 224.232 101.151 222.725C102.034 221.192 103.217 219.984 104.698 219.101C106.179 218.217 107.842 217.776 109.686 217.776C110.804 217.776 111.882 217.97 112.921 218.36C113.986 218.75 114.961 219.322 115.844 220.075V218.126H118.689V238.237C118.689 240.731 117.962 242.641 116.507 243.966C115.052 245.317 112.973 245.993 110.271 245.993ZM109.842 235.275C111.089 235.275 112.233 235.041 113.272 234.573C114.311 234.106 115.156 233.443 115.805 232.586V222.998C115.156 222.167 114.298 221.517 113.233 221.049C112.194 220.582 111.063 220.348 109.842 220.348C108.491 220.348 107.27 220.673 106.179 221.322C105.113 221.972 104.269 222.868 103.645 224.011C103.022 225.129 102.71 226.389 102.71 227.792C102.71 229.195 103.022 230.468 103.645 231.611C104.295 232.729 105.152 233.625 106.218 234.3C107.309 234.95 108.517 235.275 109.842 235.275Z" fill="#000066"/>
<path d="M133.926 238.003C132.055 238.003 130.353 237.561 128.82 236.678C127.313 235.768 126.105 234.547 125.195 233.014C124.312 231.481 123.87 229.767 123.87 227.87C123.87 225.999 124.299 224.31 125.156 222.803C126.014 221.27 127.17 220.062 128.625 219.179C130.08 218.269 131.704 217.815 133.497 217.815C135.238 217.815 136.797 218.269 138.174 219.179C139.577 220.062 140.681 221.27 141.487 222.803C142.318 224.31 142.734 225.999 142.734 227.87V228.766H126.715C126.871 230.039 127.274 231.183 127.924 232.196C128.599 233.209 129.47 234.015 130.535 234.612C131.6 235.184 132.769 235.47 134.043 235.47C135.056 235.47 136.043 235.314 137.005 235.002C137.966 234.69 138.771 234.249 139.421 233.677L141.214 235.587C140.122 236.392 138.979 237.003 137.784 237.418C136.615 237.808 135.329 238.003 133.926 238.003ZM126.793 226.467H139.85C139.694 225.298 139.304 224.258 138.68 223.349C138.083 222.413 137.329 221.686 136.42 221.166C135.511 220.621 134.51 220.348 133.419 220.348C132.302 220.348 131.275 220.608 130.34 221.127C129.405 221.647 128.625 222.374 128.002 223.31C127.378 224.219 126.975 225.272 126.793 226.467Z" fill="#000066"/>
<path d="M147.935 237.652V218.126H150.819V220.426C152.352 218.633 154.405 217.737 156.977 217.737C158.458 217.737 159.757 218.061 160.874 218.711C162.017 219.335 162.901 220.218 163.524 221.361C164.174 222.478 164.499 223.791 164.499 225.298V237.652H161.654V225.882C161.654 224.141 161.16 222.777 160.173 221.79C159.211 220.777 157.886 220.27 156.197 220.27C155.028 220.27 153.989 220.53 153.079 221.049C152.17 221.569 151.417 222.31 150.819 223.271V237.652H147.935Z" fill="#000066"/>
<path d="M179.536 238.003C177.691 238.003 176.015 237.561 174.508 236.678C173.001 235.768 171.806 234.547 170.923 233.014C170.039 231.481 169.598 229.767 169.598 227.87C169.598 225.973 170.039 224.271 170.923 222.764C171.806 221.231 173.001 220.01 174.508 219.101C176.015 218.191 177.691 217.737 179.536 217.737C180.965 217.737 182.342 218.009 183.667 218.555C184.992 219.075 186.161 219.828 187.175 220.816L185.343 222.92C184.564 222.089 183.667 221.465 182.654 221.049C181.666 220.608 180.64 220.387 179.575 220.387C178.25 220.387 177.042 220.725 175.95 221.4C174.885 222.05 174.028 222.946 173.378 224.089C172.754 225.207 172.443 226.467 172.443 227.87C172.443 229.273 172.754 230.546 173.378 231.689C174.028 232.832 174.898 233.742 175.989 234.417C177.081 235.067 178.289 235.392 179.614 235.392C180.679 235.392 181.679 235.184 182.615 234.768C183.576 234.352 184.473 233.742 185.304 232.936L187.097 234.885C186.058 235.872 184.888 236.639 183.589 237.185C182.29 237.73 180.939 238.003 179.536 238.003Z" fill="#000066"/>
<path d="M200.233 238.003C198.362 238.003 196.66 237.561 195.127 236.678C193.62 235.768 192.412 234.547 191.503 233.014C190.619 231.481 190.178 229.767 190.178 227.87C190.178 225.999 190.606 224.31 191.464 222.803C192.321 221.27 193.477 220.062 194.932 219.179C196.387 218.269 198.011 217.815 199.804 217.815C201.545 217.815 203.104 218.269 204.481 219.179C205.884 220.062 206.988 221.27 207.794 222.803C208.625 224.31 209.041 225.999 209.041 227.87V228.766H193.023C193.179 230.039 193.581 231.183 194.231 232.196C194.906 233.209 195.777 234.015 196.842 234.612C197.907 235.184 199.077 235.47 200.35 235.47C201.363 235.47 202.35 235.314 203.312 235.002C204.273 234.69 205.079 234.249 205.728 233.677L207.521 235.587C206.43 236.392 205.286 237.003 204.091 237.418C202.922 237.808 201.636 238.003 200.233 238.003ZM193.101 226.467H206.157C206.001 225.298 205.611 224.258 204.988 223.349C204.39 222.413 203.637 221.686 202.727 221.166C201.818 220.621 200.817 220.348 199.726 220.348C198.609 220.348 197.583 220.608 196.647 221.127C195.712 221.647 194.932 222.374 194.309 223.31C193.685 224.219 193.282 225.272 193.101 226.467Z" fill="#000066"/>
<path d="M271.497 237.652V218.126H274.381V220.27C275.862 218.581 277.772 217.737 280.11 217.737C281.487 217.737 282.709 218.061 283.774 218.711C284.839 219.335 285.671 220.192 286.268 221.283C287.074 220.088 288.035 219.205 289.152 218.633C290.269 218.035 291.543 217.737 292.972 217.737C294.401 217.737 295.648 218.061 296.713 218.711C297.778 219.335 298.61 220.218 299.207 221.361C299.831 222.478 300.143 223.791 300.143 225.298V237.652H297.298V225.882C297.298 224.141 296.843 222.777 295.934 221.79C295.024 220.777 293.79 220.27 292.231 220.27C291.166 220.27 290.191 220.543 289.308 221.088C288.425 221.608 287.671 222.4 287.048 223.466C287.1 223.752 287.139 224.05 287.165 224.362C287.217 224.648 287.242 224.96 287.242 225.298V237.652H284.397V225.882C284.397 224.141 283.943 222.777 283.033 221.79C282.124 220.777 280.903 220.27 279.37 220.27C278.33 220.27 277.382 220.517 276.525 221.01C275.693 221.478 274.979 222.18 274.381 223.115V237.652H271.497Z" fill="#000066"/>
<path d="M306.159 237.652V218.126H309.043V237.652H306.159ZM307.601 214.385C307.082 214.385 306.627 214.19 306.237 213.8C305.848 213.411 305.653 212.956 305.653 212.436C305.653 211.891 305.848 211.436 306.237 211.072C306.627 210.682 307.082 210.487 307.601 210.487C308.147 210.487 308.602 210.682 308.965 211.072C309.355 211.436 309.55 211.891 309.55 212.436C309.55 212.956 309.355 213.411 308.965 213.8C308.602 214.19 308.147 214.385 307.601 214.385Z" fill="#000066"/>
<path d="M315.131 237.652V218.126H318.015V220.426C319.548 218.633 321.601 217.737 324.173 217.737C325.654 217.737 326.953 218.061 328.07 218.711C329.214 219.335 330.097 220.218 330.72 221.361C331.37 222.478 331.695 223.791 331.695 225.298V237.652H328.85V225.882C328.85 224.141 328.356 222.777 327.369 221.79C326.407 220.777 325.082 220.27 323.393 220.27C322.224 220.27 321.185 220.53 320.275 221.049C319.366 221.569 318.613 222.31 318.015 223.271V237.652H315.131Z" fill="#000066"/>
<path d="M337.69 237.652V218.126H340.574V237.652H337.69ZM339.132 214.385C338.612 214.385 338.158 214.19 337.768 213.8C337.378 213.411 337.183 212.956 337.183 212.436C337.183 211.891 337.378 211.436 337.768 211.072C338.158 210.682 338.612 210.487 339.132 210.487C339.678 210.487 340.132 210.682 340.496 211.072C340.886 211.436 341.081 211.891 341.081 212.436C341.081 212.956 340.886 213.411 340.496 213.8C340.132 214.19 339.678 214.385 339.132 214.385Z" fill="#000066"/>
<path d="M346.662 237.652V218.126H349.546V220.426C351.079 218.633 353.131 217.737 355.704 217.737C357.185 217.737 358.484 218.061 359.601 218.711C360.744 219.335 361.628 220.218 362.251 221.361C362.901 222.478 363.226 223.791 363.226 225.298V237.652H360.381V225.882C360.381 224.141 359.887 222.777 358.899 221.79C357.938 220.777 356.613 220.27 354.924 220.27C353.755 220.27 352.716 220.53 351.806 221.049C350.897 221.569 350.143 222.31 349.546 223.271V237.652H346.662Z" fill="#000066"/>
<path d="M378.73 245.993C377.379 245.993 376.041 245.811 374.716 245.447C373.391 245.109 372.183 244.616 371.092 243.966L372.339 241.705C373.508 242.329 374.586 242.784 375.574 243.07C376.587 243.355 377.6 243.498 378.614 243.498C380.458 243.498 381.861 243.057 382.823 242.173C383.784 241.29 384.265 239.991 384.265 238.276V235.548C382.472 237.055 380.406 237.808 378.068 237.808C376.275 237.808 374.638 237.366 373.157 236.483C371.676 235.6 370.494 234.404 369.611 232.897C368.753 231.364 368.324 229.663 368.324 227.792C368.324 225.921 368.753 224.232 369.611 222.725C370.494 221.192 371.676 219.984 373.157 219.101C374.638 218.217 376.301 217.776 378.146 217.776C379.263 217.776 380.341 217.97 381.381 218.36C382.446 218.75 383.42 219.322 384.304 220.075V218.126H387.149V238.237C387.149 240.731 386.421 242.641 384.966 243.966C383.511 245.317 381.433 245.993 378.73 245.993ZM378.302 235.275C379.549 235.275 380.692 235.041 381.731 234.573C382.771 234.106 383.615 233.443 384.265 232.586V222.998C383.615 222.167 382.758 221.517 381.692 221.049C380.653 220.582 379.523 220.348 378.302 220.348C376.951 220.348 375.729 220.673 374.638 221.322C373.573 221.972 372.728 222.868 372.105 224.011C371.481 225.129 371.17 226.389 371.17 227.792C371.17 229.195 371.481 230.468 372.105 231.611C372.754 232.729 373.612 233.625 374.677 234.3C375.768 234.95 376.977 235.275 378.302 235.275Z" fill="#000066"/>
</svg>
