<svg width="383" height="161" viewBox="0 0 383 161" fill="none" xmlns="http://www.w3.org/2000/svg">
<path d="M24.3536 152.976L24.3681 152.982L24.3826 152.989C30.735 155.863 37.9632 157.249 45.9877 157.249C52.8517 157.249 59.2749 156.226 65.2277 154.143L65.2509 154.135L65.274 154.126C69.1131 152.722 72.7431 150.903 76.161 148.676V151.879V155.379H79.661H94.627H98.127V151.879V81.8297C98.127 69.4254 94.2546 59.4257 86.1216 52.3804C78.2014 45.3988 67.1434 42.162 53.4706 42.162C46.7883 42.162 40.1172 43.0341 33.464 44.7697C26.8231 46.5021 19.6797 49.2247 12.0431 52.9015L8.86464 54.4319L10.42 57.5982L16.2401 69.4462L17.808 72.638L20.9744 71.0196C27.0576 67.9104 32.5078 65.7283 37.3393 64.4225L37.3694 64.4143L37.3993 64.4057C42.3706 62.9666 47.2397 62.2572 52.0156 62.2572C60.5097 62.2572 66.3925 64.2832 70.2356 67.7872L70.2567 67.8064L70.2781 67.8253C74.0128 71.1206 76.161 76.255 76.161 83.9083V92.16C67.8452 88.7491 58.8137 87.0598 49.1056 87.0598C35.8621 87.0598 24.9178 90.0107 16.6415 96.2945C8.23998 102.673 4.03351 111.49 4.03351 122.362C4.03351 129.227 5.79883 135.398 9.4153 140.745L9.43482 140.773L9.45491 140.802C13.164 146.056 18.1653 150.108 24.3536 152.976ZM64.9807 107.228L65.0255 107.241L65.0706 107.253C68.9485 108.25 72.6429 109.828 76.161 112.001V128.154C72.6036 131.475 68.7168 133.913 64.4958 135.51C59.8148 137.281 54.5601 138.193 48.6898 138.193C41.4973 138.193 35.9078 136.535 31.6608 133.484C27.6476 130.371 25.7916 126.601 25.7916 121.947C25.7916 116.945 27.7022 113.142 31.6538 110.206L31.6603 110.201L31.6667 110.197C35.8757 107.04 41.7135 105.284 49.5213 105.284C55.3586 105.284 60.5005 105.948 64.9807 107.228ZM123.06 151.879V155.379H126.56H141.941H145.441V151.879V47.7406V44.2406H141.941H126.56H123.06V47.7406V151.879ZM170.908 151.879V155.379H174.408H189.79H193.29V151.879V47.7406V44.2406H189.79H174.408H170.908V47.7406V151.879ZM218.756 151.879V155.379H222.256H237.638H241.138V151.879V75.3928C243.941 71.2415 247.168 68.2081 250.786 66.1728L250.802 66.1642L250.817 66.1555C254.831 63.8441 259.282 62.6729 264.244 62.6729C271.565 62.6729 277.079 65.05 281.178 69.6172L281.193 69.634L281.209 69.6507C285.304 74.0965 287.558 80.4302 287.558 89.1048V151.879V155.379H291.058H306.232H309.732V151.879V85.9869C309.732 84.0721 309.59 82.2539 309.29 80.5425C309.183 79.304 309.04 78.0955 308.859 76.9177C311.8 72.2046 315.205 68.8008 319.023 66.5548L319.056 66.5356L319.088 66.5158C323.232 63.9564 327.788 62.6729 332.838 62.6729C340.318 62.6729 345.893 65.0633 349.98 69.6172L349.995 69.634L350.01 69.6507C354.105 74.0965 356.36 80.4302 356.36 89.1048V151.879V155.379H359.86H375.034H378.534V151.879V85.9869C378.534 77.4772 376.773 69.8855 373.125 63.3292C369.654 56.7071 364.786 51.5185 358.538 47.8542C352.237 44.0197 344.945 42.162 336.787 42.162C328.676 42.162 321.316 43.8596 314.795 47.3413C309.676 49.9654 305.171 53.6806 301.264 58.4179C298.127 54.1277 294.209 50.5985 289.527 47.8537C283.248 44.0318 276.101 42.162 268.194 42.162C257.758 42.162 248.693 45.1217 241.138 51.0377V47.7406V44.2406H237.638H222.256H218.756V47.7406V151.879ZM124.5 27.143C127.191 29.8338 130.49 31.286 134.25 31.286C138.084 31.286 141.429 29.8778 144.042 27.1008C146.706 24.4177 148.143 21.1338 148.143 17.393C148.143 13.5791 146.75 10.2491 144.001 7.6419C141.394 4.8936 138.064 3.5 134.25 3.5C130.51 3.5 127.226 4.93706 124.543 7.60083C121.766 10.2141 120.357 13.559 120.357 17.393C120.357 21.1534 121.81 24.4522 124.5 27.143ZM172.349 27.143C175.04 29.8338 178.338 31.286 182.099 31.286C185.933 31.286 189.278 29.8777 191.891 27.1005C194.555 24.4175 195.992 21.1336 195.992 17.393C195.992 13.5791 194.598 10.2491 191.85 7.6419C189.243 4.8936 185.913 3.5 182.099 3.5C178.358 3.5 175.074 4.93706 172.391 7.60083C169.614 10.2141 168.206 13.559 168.206 17.393C168.206 21.1534 169.658 24.4522 172.349 27.143Z" fill="white" stroke="#000066" stroke-width="7"/>
</svg>
