<svg width="379" height="157" viewBox="0 0 379 157" fill="none" xmlns="http://www.w3.org/2000/svg">
<path d="M22.7741 150.068L22.7844 150.073L22.7948 150.078C28.9951 152.883 36.0784 154.249 43.9877 154.249C50.7514 154.249 57.0617 153.241 62.8974 151.199L62.914 151.193L62.9305 151.187C67.2813 149.595 71.3592 147.462 75.161 144.792V149.879V152.379H77.661H92.627H95.127V149.879V79.8297C95.127 67.6437 91.3315 57.9472 83.4633 51.1332C75.7867 44.3647 64.9979 41.162 51.4706 41.162C44.8763 41.162 38.2899 42.0225 31.7164 43.7373C25.1517 45.4498 18.0696 48.1468 10.4769 51.8025L8.20659 52.8956L9.31757 55.1573L15.1377 67.0053L16.2576 69.2852L18.5193 68.1292C24.6461 64.9977 30.1624 62.7857 35.0784 61.4571L35.0998 61.4513L35.1212 61.4451C40.1767 59.9817 45.1393 59.2572 50.0156 59.2572C58.6563 59.2572 64.8182 61.318 68.9094 65.0483L68.9244 65.062L68.9397 65.0755C72.9535 68.617 75.161 74.0661 75.161 81.9083V91.6699C66.5975 87.9208 57.2347 86.0598 47.1056 86.0598C34.0034 86.0598 23.2958 88.9792 15.2462 95.091C7.10713 101.271 3.03351 109.785 3.03351 120.362C3.03351 127.047 4.74977 133.019 8.24359 138.184L8.25753 138.205L8.27188 138.225C11.8714 143.325 16.7306 147.268 22.7741 150.068ZM63.2554 104.267L63.2874 104.276L63.3196 104.284C67.4733 105.352 71.4185 107.07 75.161 109.448V126.585C71.4296 130.142 67.3271 132.751 62.8497 134.445C58.0412 136.265 52.6645 137.193 46.6898 137.193C39.3347 137.193 33.5211 135.494 29.0625 132.286C24.8099 128.993 22.7916 124.934 22.7916 119.947C22.7916 114.632 24.8492 110.53 29.0575 107.403L29.0667 107.397C33.4984 104.073 39.5687 102.284 47.5213 102.284C53.4329 102.284 58.6695 102.956 63.2554 104.267ZM122.06 149.879V152.379H124.56H139.941H142.441V149.879V45.7406V43.2406H139.941H124.56H122.06V45.7406V149.879ZM169.908 149.879V152.379H172.408H187.79H190.29V149.879V45.7406V43.2406H187.79H172.408H169.908V45.7406V149.879ZM217.756 149.879V152.379H220.256H235.638H238.138V149.879V73.0889C241.054 68.698 244.448 65.4657 248.296 63.3012L248.307 63.2951L248.318 63.2888C252.492 60.8856 257.116 59.6729 262.244 59.6729C269.809 59.6729 275.609 62.1429 279.922 66.9493L279.933 66.9613L279.944 66.9732C284.255 71.6533 286.558 78.256 286.558 87.1048V149.879V152.379H289.058H304.232H306.732V149.879V83.9869C306.732 82.1048 306.591 80.3307 306.298 78.6719C306.181 77.3111 306.02 75.9894 305.813 74.7072C308.868 69.7188 312.448 66.0857 316.516 63.6928L316.539 63.6792L316.562 63.665C320.868 61.0054 325.608 59.6729 330.838 59.6729C338.556 59.6729 344.419 62.1524 348.724 66.9493L348.735 66.9613L348.746 66.9732C353.057 71.6533 355.36 78.256 355.36 87.1048V149.879V152.379H357.86H373.034H375.534V149.879V83.9869C375.534 75.6123 373.801 68.1901 370.245 61.8044C366.855 55.3324 362.111 50.2801 356.025 46.7124C349.901 42.9837 342.792 41.162 334.787 41.162C326.816 41.162 319.619 42.8299 313.258 46.2276C307.91 48.9681 303.232 52.9389 299.212 58.0791C296.035 53.409 291.964 49.613 287.015 46.7124C280.906 42.9925 273.94 41.162 266.194 41.162C255.217 41.162 245.824 44.4948 238.138 51.1576V45.7406V43.2406H235.638H220.256H217.756V45.7406V149.879ZM123.207 24.4359C125.723 26.9518 128.772 28.286 132.25 28.286C135.82 28.286 138.903 26.9831 141.323 24.4056C143.82 21.8955 145.143 18.8569 145.143 15.393C145.143 11.8375 143.851 8.76563 141.294 6.34927C138.878 3.79242 135.806 2.5 132.25 2.5C128.786 2.5 125.748 3.82354 123.238 6.31981C120.66 8.74064 119.357 11.823 119.357 15.393C119.357 18.8709 120.692 21.92 123.207 24.4359ZM171.056 24.4359C173.572 26.9518 176.621 28.286 180.099 28.286C183.669 28.286 186.751 26.9831 189.172 24.4056C191.668 21.8955 192.992 18.8569 192.992 15.393C192.992 11.8374 191.699 8.76562 189.143 6.34927C186.726 3.79242 183.654 2.5 180.099 2.5C176.635 2.5 173.596 3.82363 171.086 6.32007C168.509 8.74086 167.206 11.8231 167.206 15.393C167.206 18.8709 168.54 21.92 171.056 24.4359Z" fill="white" stroke="#000066" stroke-width="5"/>
</svg>
