<svg width="341" height="144" viewBox="0 0 341 144" fill="none" xmlns="http://www.w3.org/2000/svg">
<path d="M30.5 0.5H0.5V120.5H30.5V0.5Z" fill="#000066"/>
<path d="M68.5 0.5H38.5V30.5H68.5V0.5Z" fill="#000066"/>
<path d="M106.5 0.5H76.5V120.5H106.5V0.5Z" fill="#000066"/>
<path d="M68.5 50.5H38.5V80.5H68.5V50.5Z" fill="#000066"/>
<path d="M146.5 0.5H116.5V30.5H146.5V0.5Z" fill="#000066"/>
<path d="M147.37 50.5H117.37V120.5H147.37V50.5Z" fill="#000066"/>
<path d="M224.37 0.5H194.37V30.5H224.37V0.5Z" fill="#000066"/>
<path d="M264.37 0.5H234.37V120.5H264.37V0.5Z" fill="#000066"/>
<path d="M302.37 0.5H272.37V50.5H302.37V0.5Z" fill="#000066"/>
<path d="M340.37 0.5H310.37V120.5H340.37V0.5Z" fill="#000066"/>
<path d="M224.37 50.5H194.37V120.5H224.37V50.5Z" fill="#000066"/>
<path d="M4.40267 139H2.15267L6.24926 127.364H8.85153L12.9538 139H10.7038L7.59585 129.75H7.50494L4.40267 139ZM4.47653 134.438H10.6129V136.131H4.47653V134.438ZM14.7156 139V130.273H16.7099V131.727H16.8008C16.9599 131.223 17.2326 130.835 17.619 130.562C18.0091 130.286 18.4542 130.148 18.9542 130.148C19.0678 130.148 19.1947 130.153 19.3349 130.165C19.4788 130.172 19.5981 130.186 19.6928 130.205V132.097C19.6057 132.066 19.4675 132.04 19.2781 132.017C19.0925 131.991 18.9125 131.977 18.7383 131.977C18.3633 131.977 18.0262 132.059 17.7269 132.222C17.4315 132.381 17.1985 132.602 17.0281 132.886C16.8576 133.17 16.7724 133.498 16.7724 133.869V139H14.7156ZM26.206 130.273V131.864H21.189V130.273H26.206ZM22.4276 128.182H24.4844V136.375C24.4844 136.652 24.5261 136.864 24.6094 137.011C24.6965 137.155 24.8102 137.254 24.9503 137.307C25.0905 137.36 25.2458 137.386 25.4162 137.386C25.545 137.386 25.6625 137.377 25.7685 137.358C25.8784 137.339 25.9617 137.322 26.0185 137.307L26.3651 138.915C26.2553 138.953 26.0981 138.994 25.8935 139.04C25.6928 139.085 25.4465 139.112 25.1549 139.119C24.6397 139.134 24.1757 139.057 23.7628 138.886C23.35 138.712 23.0223 138.443 22.7799 138.08C22.5412 137.716 22.4238 137.261 22.4276 136.716V128.182ZM28.2462 139V130.273H30.303V139H28.2462ZM29.2803 129.034C28.9545 129.034 28.6742 128.926 28.4394 128.71C28.2045 128.491 28.0871 128.227 28.0871 127.92C28.0871 127.61 28.2045 127.347 28.4394 127.131C28.6742 126.911 28.9545 126.801 29.2803 126.801C29.6098 126.801 29.8901 126.911 30.1212 127.131C30.356 127.347 30.4735 127.61 30.4735 127.92C30.4735 128.227 30.356 128.491 30.1212 128.71C29.8901 128.926 29.6098 129.034 29.2803 129.034ZM37.1585 130.273V131.864H31.9994V130.273H37.1585ZM33.2892 139V129.449C33.2892 128.862 33.4104 128.373 33.6528 127.983C33.899 127.593 34.2286 127.301 34.6415 127.108C35.0544 126.915 35.5127 126.818 36.0165 126.818C36.3725 126.818 36.6888 126.847 36.9653 126.903C37.2419 126.96 37.4464 127.011 37.579 127.057L37.1699 128.648C37.0828 128.621 36.9729 128.595 36.8403 128.568C36.7078 128.538 36.56 128.523 36.3972 128.523C36.0146 128.523 35.7437 128.616 35.5847 128.801C35.4294 128.983 35.3517 129.244 35.3517 129.585V139H33.2892ZM39.0893 139V130.273H41.1461V139H39.0893ZM40.1234 129.034C39.7976 129.034 39.5173 128.926 39.2825 128.71C39.0476 128.491 38.9302 128.227 38.9302 127.92C38.9302 127.61 39.0476 127.347 39.2825 127.131C39.5173 126.911 39.7976 126.801 40.1234 126.801C40.4529 126.801 40.7333 126.911 40.9643 127.131C41.1992 127.347 41.3166 127.61 41.3166 127.92C41.3166 128.227 41.1992 128.491 40.9643 128.71C40.7333 128.926 40.4529 129.034 40.1234 129.034ZM47.388 139.17C46.5168 139.17 45.7687 138.979 45.1437 138.597C44.5225 138.214 44.0433 137.686 43.7062 137.011C43.3729 136.333 43.2062 135.553 43.2062 134.67C43.2062 133.784 43.3766 133.002 43.7176 132.324C44.0585 131.642 44.5395 131.112 45.1607 130.733C45.7857 130.35 46.5244 130.159 47.3766 130.159C48.085 130.159 48.7119 130.29 49.2573 130.551C49.8066 130.809 50.2441 131.174 50.5698 131.648C50.8956 132.117 51.0812 132.667 51.1266 133.295H49.1607C49.0812 132.875 48.8918 132.525 48.5926 132.244C48.2971 131.96 47.9013 131.818 47.4051 131.818C46.9846 131.818 46.6153 131.932 46.2971 132.159C45.9789 132.383 45.7308 132.705 45.5528 133.125C45.3785 133.545 45.2914 134.049 45.2914 134.636C45.2914 135.231 45.3785 135.742 45.5528 136.17C45.727 136.595 45.9713 136.922 46.2857 137.153C46.6039 137.381 46.977 137.494 47.4051 137.494C47.7081 137.494 47.9789 137.437 48.2176 137.324C48.46 137.206 48.6626 137.038 48.8255 136.818C48.9884 136.598 49.1001 136.331 49.1607 136.017H51.1266C51.0774 136.634 50.8956 137.182 50.5812 137.659C50.2668 138.133 49.8388 138.504 49.2971 138.773C48.7554 139.038 48.1191 139.17 47.388 139.17ZM53.1356 139V130.273H55.1924V139H53.1356ZM54.1697 129.034C53.8439 129.034 53.5636 128.926 53.3287 128.71C53.0939 128.491 52.9765 128.227 52.9765 127.92C52.9765 127.61 53.0939 127.347 53.3287 127.131C53.5636 126.911 53.8439 126.801 54.1697 126.801C54.4992 126.801 54.7795 126.911 55.0106 127.131C55.2454 127.347 55.3628 127.61 55.3628 127.92C55.3628 128.227 55.2454 128.491 55.0106 128.71C54.7795 128.926 54.4992 129.034 54.1697 129.034ZM60.1388 139.176C59.5858 139.176 59.0877 139.078 58.6445 138.881C58.2051 138.68 57.8566 138.384 57.599 137.994C57.3452 137.604 57.2183 137.123 57.2183 136.551C57.2183 136.059 57.3093 135.652 57.4911 135.33C57.6729 135.008 57.921 134.75 58.2354 134.557C58.5498 134.364 58.904 134.218 59.2979 134.119C59.6956 134.017 60.1066 133.943 60.5308 133.898C61.0422 133.845 61.457 133.797 61.7752 133.756C62.0933 133.71 62.3244 133.642 62.4683 133.551C62.6161 133.456 62.6899 133.311 62.6899 133.114V133.08C62.6899 132.652 62.563 132.32 62.3093 132.085C62.0555 131.85 61.6899 131.733 61.2127 131.733C60.7089 131.733 60.3093 131.843 60.0138 132.062C59.7221 132.282 59.5252 132.542 59.4229 132.841L57.5024 132.568C57.654 132.038 57.904 131.595 58.2524 131.239C58.6009 130.879 59.0271 130.61 59.5308 130.432C60.0346 130.25 60.5915 130.159 61.2013 130.159C61.6218 130.159 62.0403 130.208 62.457 130.307C62.8737 130.405 63.2543 130.568 63.599 130.795C63.9437 131.019 64.2202 131.324 64.4286 131.71C64.6407 132.097 64.7468 132.58 64.7468 133.159V139H62.7695V137.801H62.7013C62.5763 138.044 62.4002 138.271 62.1729 138.483C61.9494 138.691 61.6672 138.86 61.3263 138.989C60.9892 139.114 60.5933 139.176 60.1388 139.176ZM60.6729 137.665C61.0858 137.665 61.4437 137.583 61.7468 137.42C62.0498 137.254 62.2827 137.034 62.4456 136.761C62.6123 136.489 62.6956 136.191 62.6956 135.869V134.841C62.6312 134.894 62.5214 134.943 62.3661 134.989C62.2146 135.034 62.0441 135.074 61.8547 135.108C61.6653 135.142 61.4778 135.172 61.2922 135.199C61.1066 135.225 60.9456 135.248 60.8093 135.267C60.5024 135.309 60.2278 135.377 59.9854 135.472C59.743 135.566 59.5517 135.699 59.4115 135.869C59.2714 136.036 59.2013 136.252 59.2013 136.517C59.2013 136.896 59.3396 137.182 59.6161 137.375C59.8926 137.568 60.2449 137.665 60.6729 137.665ZM69.1918 127.364V139H67.1349V127.364H69.1918ZM78.1144 127.364V139H76.0065V127.364H78.1144ZM82.683 133.886V139H80.6262V130.273H82.5921V131.756H82.6944C82.8951 131.267 83.2152 130.879 83.6546 130.591C84.0978 130.303 84.6451 130.159 85.2966 130.159C85.8989 130.159 86.4235 130.288 86.8705 130.545C87.3213 130.803 87.6697 131.176 87.916 131.665C88.166 132.153 88.2891 132.746 88.2853 133.443V139H86.2285V133.761C86.2285 133.178 86.0769 132.722 85.7739 132.392C85.4747 132.062 85.0599 131.898 84.5296 131.898C84.1697 131.898 83.8497 131.977 83.5694 132.136C83.2929 132.292 83.075 132.517 82.916 132.812C82.7607 133.108 82.683 133.466 82.683 133.886ZM95.0541 130.273V131.864H90.0371V130.273H95.0541ZM91.2757 128.182H93.3326V136.375C93.3326 136.652 93.3742 136.864 93.4576 137.011C93.5447 137.155 93.6583 137.254 93.7985 137.307C93.9386 137.36 94.0939 137.386 94.2644 137.386C94.3932 137.386 94.5106 137.377 94.6166 137.358C94.7265 137.339 94.8098 137.322 94.8666 137.307L95.2132 138.915C95.1034 138.953 94.9462 138.994 94.7416 139.04C94.5409 139.085 94.2947 139.112 94.003 139.119C93.4879 139.134 93.0238 139.057 92.611 138.886C92.1981 138.712 91.8704 138.443 91.628 138.08C91.3894 137.716 91.2719 137.261 91.2757 136.716V128.182ZM100.864 139.17C99.9892 139.17 99.2335 138.989 98.5972 138.625C97.9646 138.258 97.4778 137.739 97.1369 137.068C96.796 136.394 96.6256 135.6 96.6256 134.688C96.6256 133.79 96.796 133.002 97.1369 132.324C97.4816 131.642 97.9627 131.112 98.5801 130.733C99.1975 130.35 99.9229 130.159 100.756 130.159C101.294 130.159 101.802 130.246 102.279 130.42C102.76 130.591 103.184 130.856 103.552 131.216C103.923 131.576 104.215 132.034 104.427 132.591C104.639 133.144 104.745 133.803 104.745 134.568V135.199H97.5915V133.812H102.773C102.77 133.419 102.684 133.068 102.518 132.761C102.351 132.451 102.118 132.206 101.819 132.028C101.523 131.85 101.179 131.761 100.785 131.761C100.364 131.761 99.9949 131.864 99.6767 132.068C99.3585 132.269 99.1104 132.534 98.9324 132.864C98.7581 133.189 98.6691 133.547 98.6653 133.938V135.148C98.6653 135.655 98.7581 136.091 98.9437 136.455C99.1294 136.814 99.3888 137.091 99.7222 137.284C100.055 137.473 100.446 137.568 100.893 137.568C101.192 137.568 101.463 137.527 101.705 137.443C101.948 137.356 102.158 137.229 102.336 137.062C102.514 136.896 102.648 136.689 102.739 136.443L104.66 136.659C104.538 137.167 104.307 137.61 103.966 137.989C103.629 138.364 103.198 138.655 102.671 138.864C102.145 139.068 101.542 139.17 100.864 139.17ZM108.862 127.364V139H106.805V127.364H108.862ZM113.354 127.364V139H111.297V127.364H113.354ZM115.789 139V130.273H117.846V139H115.789ZM116.823 129.034C116.497 129.034 116.217 128.926 115.982 128.71C115.747 128.491 115.63 128.227 115.63 127.92C115.63 127.61 115.747 127.347 115.982 127.131C116.217 126.911 116.497 126.801 116.823 126.801C117.152 126.801 117.433 126.911 117.664 127.131C117.899 127.347 118.016 127.61 118.016 127.92C118.016 128.227 117.899 128.491 117.664 128.71C117.433 128.926 117.152 129.034 116.823 129.034ZM124.076 142.455C123.337 142.455 122.703 142.354 122.173 142.153C121.642 141.956 121.216 141.691 120.894 141.358C120.572 141.025 120.349 140.655 120.224 140.25L122.076 139.801C122.159 139.972 122.281 140.14 122.44 140.307C122.599 140.477 122.813 140.617 123.082 140.727C123.354 140.841 123.697 140.898 124.11 140.898C124.693 140.898 125.176 140.756 125.559 140.472C125.942 140.191 126.133 139.729 126.133 139.085V137.432H126.031C125.925 137.644 125.769 137.862 125.565 138.085C125.364 138.309 125.097 138.496 124.764 138.648C124.434 138.799 124.019 138.875 123.519 138.875C122.849 138.875 122.241 138.718 121.695 138.403C121.154 138.085 120.722 137.612 120.4 136.983C120.082 136.35 119.923 135.559 119.923 134.608C119.923 133.65 120.082 132.841 120.4 132.182C120.722 131.519 121.156 131.017 121.701 130.676C122.246 130.331 122.854 130.159 123.525 130.159C124.036 130.159 124.457 130.246 124.786 130.42C125.12 130.591 125.385 130.797 125.582 131.04C125.779 131.278 125.928 131.504 126.031 131.716H126.144V130.273H128.173V139.142C128.173 139.888 127.995 140.506 127.639 140.994C127.282 141.483 126.796 141.848 126.178 142.091C125.561 142.333 124.86 142.455 124.076 142.455ZM124.093 137.261C124.529 137.261 124.9 137.155 125.207 136.943C125.514 136.731 125.746 136.426 125.906 136.028C126.065 135.631 126.144 135.153 126.144 134.597C126.144 134.047 126.065 133.566 125.906 133.153C125.75 132.741 125.519 132.42 125.212 132.193C124.909 131.962 124.536 131.847 124.093 131.847C123.635 131.847 123.252 131.966 122.945 132.205C122.639 132.443 122.407 132.771 122.252 133.188C122.097 133.6 122.019 134.07 122.019 134.597C122.019 135.131 122.097 135.598 122.252 136C122.411 136.398 122.644 136.708 122.951 136.932C123.262 137.152 123.642 137.261 124.093 137.261ZM134.464 139.17C133.589 139.17 132.834 138.989 132.197 138.625C131.565 138.258 131.078 137.739 130.737 137.068C130.396 136.394 130.226 135.6 130.226 134.688C130.226 133.79 130.396 133.002 130.737 132.324C131.082 131.642 131.563 131.112 132.18 130.733C132.798 130.35 133.523 130.159 134.356 130.159C134.894 130.159 135.402 130.246 135.879 130.42C136.36 130.591 136.784 130.856 137.152 131.216C137.523 131.576 137.815 132.034 138.027 132.591C138.239 133.144 138.345 133.803 138.345 134.568V135.199H131.191V133.812H136.373C136.37 133.419 136.284 133.068 136.118 132.761C135.951 132.451 135.718 132.206 135.419 132.028C135.123 131.85 134.779 131.761 134.385 131.761C133.964 131.761 133.595 131.864 133.277 132.068C132.959 132.269 132.71 132.534 132.532 132.864C132.358 133.189 132.269 133.547 132.265 133.938V135.148C132.265 135.655 132.358 136.091 132.544 136.455C132.729 136.814 132.989 137.091 133.322 137.284C133.655 137.473 134.046 137.568 134.493 137.568C134.792 137.568 135.063 137.527 135.305 137.443C135.548 137.356 135.758 137.229 135.936 137.062C136.114 136.896 136.248 136.689 136.339 136.443L138.26 136.659C138.138 137.167 137.907 137.61 137.566 137.989C137.229 138.364 136.798 138.655 136.271 138.864C135.745 139.068 135.142 139.17 134.464 139.17ZM142.462 133.886V139H140.405V130.273H142.371V131.756H142.473C142.674 131.267 142.994 130.879 143.433 130.591C143.877 130.303 144.424 130.159 145.075 130.159C145.678 130.159 146.202 130.288 146.649 130.545C147.1 130.803 147.448 131.176 147.695 131.665C147.945 132.153 148.068 132.746 148.064 133.443V139H146.007V133.761C146.007 133.178 145.856 132.722 145.553 132.392C145.253 132.062 144.839 131.898 144.308 131.898C143.948 131.898 143.628 131.977 143.348 132.136C143.072 132.292 142.854 132.517 142.695 132.812C142.539 133.108 142.462 133.466 142.462 133.886ZM154.282 139.17C153.411 139.17 152.662 138.979 152.037 138.597C151.416 138.214 150.937 137.686 150.6 137.011C150.267 136.333 150.1 135.553 150.1 134.67C150.1 133.784 150.27 133.002 150.611 132.324C150.952 131.642 151.433 131.112 152.054 130.733C152.679 130.35 153.418 130.159 154.27 130.159C154.979 130.159 155.606 130.29 156.151 130.551C156.7 130.809 157.138 131.174 157.464 131.648C157.789 132.117 157.975 132.667 158.02 133.295H156.054C155.975 132.875 155.786 132.525 155.486 132.244C155.191 131.96 154.795 131.818 154.299 131.818C153.878 131.818 153.509 131.932 153.191 132.159C152.873 132.383 152.625 132.705 152.447 133.125C152.272 133.545 152.185 134.049 152.185 134.636C152.185 135.231 152.272 135.742 152.447 136.17C152.621 136.595 152.865 136.922 153.179 137.153C153.498 137.381 153.871 137.494 154.299 137.494C154.602 137.494 154.873 137.437 155.111 137.324C155.354 137.206 155.556 137.038 155.719 136.818C155.882 136.598 155.994 136.331 156.054 136.017H158.02C157.971 136.634 157.789 137.182 157.475 137.659C157.161 138.133 156.733 138.504 156.191 138.773C155.649 139.038 155.013 139.17 154.282 139.17ZM163.893 139.17C163.018 139.17 162.262 138.989 161.626 138.625C160.993 138.258 160.507 137.739 160.166 137.068C159.825 136.394 159.654 135.6 159.654 134.688C159.654 133.79 159.825 133.002 160.166 132.324C160.51 131.642 160.991 131.112 161.609 130.733C162.226 130.35 162.952 130.159 163.785 130.159C164.323 130.159 164.83 130.246 165.308 130.42C165.789 130.591 166.213 130.856 166.58 131.216C166.952 131.576 167.243 132.034 167.455 132.591C167.668 133.144 167.774 133.803 167.774 134.568V135.199H160.62V133.812H165.802C165.798 133.419 165.713 133.068 165.546 132.761C165.38 132.451 165.147 132.206 164.847 132.028C164.552 131.85 164.207 131.761 163.813 131.761C163.393 131.761 163.024 131.864 162.705 132.068C162.387 132.269 162.139 132.534 161.961 132.864C161.787 133.189 161.698 133.547 161.694 133.938V135.148C161.694 135.655 161.787 136.091 161.972 136.455C162.158 136.814 162.418 137.091 162.751 137.284C163.084 137.473 163.474 137.568 163.921 137.568C164.221 137.568 164.491 137.527 164.734 137.443C164.976 137.356 165.187 137.229 165.365 137.062C165.543 136.896 165.677 136.689 165.768 136.443L167.688 136.659C167.567 137.167 167.336 137.61 166.995 137.989C166.658 138.364 166.226 138.655 165.7 138.864C165.173 139.068 164.571 139.17 163.893 139.17ZM177.6 139.17C176.804 139.17 176.121 139.027 175.549 138.739C174.977 138.451 174.535 138.062 174.225 137.574C173.918 137.081 173.764 136.527 173.764 135.909C173.764 135.443 173.859 135.03 174.049 134.67C174.242 134.311 174.507 133.977 174.844 133.67C175.185 133.364 175.579 133.059 176.026 132.756L178.088 131.352C178.391 131.155 178.621 130.947 178.776 130.727C178.935 130.508 179.014 130.25 179.014 129.955C179.014 129.705 178.908 129.468 178.696 129.244C178.488 129.021 178.2 128.909 177.833 128.909C177.586 128.909 177.369 128.968 177.179 129.085C176.994 129.199 176.848 129.348 176.742 129.534C176.639 129.72 176.588 129.917 176.588 130.125C176.588 130.379 176.658 130.636 176.799 130.898C176.943 131.159 177.128 131.43 177.355 131.71C177.586 131.991 177.833 132.288 178.094 132.602L183.554 139H181.327L176.793 133.807C176.456 133.413 176.13 133.025 175.816 132.642C175.505 132.259 175.249 131.862 175.049 131.449C174.852 131.032 174.753 130.581 174.753 130.097C174.753 129.547 174.88 129.057 175.134 128.625C175.388 128.189 175.742 127.847 176.196 127.597C176.655 127.347 177.191 127.222 177.804 127.222C178.418 127.222 178.944 127.343 179.384 127.585C179.823 127.828 180.162 128.15 180.401 128.551C180.639 128.953 180.759 129.39 180.759 129.864C180.759 130.413 180.622 130.905 180.35 131.341C180.077 131.773 179.698 132.165 179.213 132.517L176.861 134.239C176.475 134.519 176.198 134.803 176.032 135.091C175.865 135.375 175.782 135.617 175.782 135.818C175.782 136.125 175.859 136.403 176.014 136.653C176.17 136.903 176.388 137.104 176.668 137.256C176.952 137.403 177.283 137.477 177.662 137.477C178.079 137.477 178.49 137.384 178.895 137.199C179.3 137.009 179.67 136.741 180.003 136.392C180.336 136.044 180.602 135.627 180.799 135.142C180.996 134.653 181.094 134.112 181.094 133.517H182.861C182.861 134.252 182.78 134.892 182.617 135.438C182.454 135.979 182.244 136.438 181.986 136.812C181.728 137.184 181.456 137.481 181.168 137.705C181.077 137.769 180.99 137.833 180.907 137.898C180.823 137.962 180.736 138.027 180.645 138.091C180.236 138.462 179.757 138.735 179.208 138.909C178.662 139.083 178.126 139.17 177.6 139.17ZM191.539 127.364V139H189.431V127.364H191.539ZM196.108 133.886V139H194.051V130.273H196.017V131.756H196.119C196.32 131.267 196.64 130.879 197.08 130.591C197.523 130.303 198.07 130.159 198.722 130.159C199.324 130.159 199.849 130.288 200.296 130.545C200.746 130.803 201.095 131.176 201.341 131.665C201.591 132.153 201.714 132.746 201.71 133.443V139H199.653V133.761C199.653 133.178 199.502 132.722 199.199 132.392C198.9 132.062 198.485 131.898 197.955 131.898C197.595 131.898 197.275 131.977 196.994 132.136C196.718 132.292 196.5 132.517 196.341 132.812C196.186 133.108 196.108 133.466 196.108 133.886ZM208.542 130.273V131.864H203.383V130.273H208.542ZM204.672 139V129.449C204.672 128.862 204.794 128.373 205.036 127.983C205.282 127.593 205.612 127.301 206.025 127.108C206.437 126.915 206.896 126.818 207.4 126.818C207.756 126.818 208.072 126.847 208.348 126.903C208.625 126.96 208.83 127.011 208.962 127.057L208.553 128.648C208.466 128.621 208.356 128.595 208.223 128.568C208.091 128.538 207.943 128.523 207.78 128.523C207.398 128.523 207.127 128.616 206.968 128.801C206.812 128.983 206.735 129.244 206.735 129.585V139H204.672ZM213.951 139.17C213.099 139.17 212.36 138.983 211.735 138.608C211.11 138.233 210.625 137.708 210.281 137.034C209.94 136.36 209.769 135.572 209.769 134.67C209.769 133.769 209.94 132.979 210.281 132.301C210.625 131.623 211.11 131.097 211.735 130.722C212.36 130.347 213.099 130.159 213.951 130.159C214.803 130.159 215.542 130.347 216.167 130.722C216.792 131.097 217.275 131.623 217.616 132.301C217.961 132.979 218.133 133.769 218.133 134.67C218.133 135.572 217.961 136.36 217.616 137.034C217.275 137.708 216.792 138.233 216.167 138.608C215.542 138.983 214.803 139.17 213.951 139.17ZM213.962 137.523C214.425 137.523 214.811 137.396 215.122 137.142C215.432 136.884 215.663 136.54 215.815 136.108C215.97 135.676 216.048 135.195 216.048 134.665C216.048 134.131 215.97 133.648 215.815 133.216C215.663 132.78 215.432 132.434 215.122 132.176C214.811 131.919 214.425 131.79 213.962 131.79C213.489 131.79 213.095 131.919 212.781 132.176C212.47 132.434 212.237 132.78 212.082 133.216C211.93 133.648 211.855 134.131 211.855 134.665C211.855 135.195 211.93 135.676 212.082 136.108C212.237 136.54 212.47 136.884 212.781 137.142C213.095 137.396 213.489 137.523 213.962 137.523ZM220.199 139V130.273H222.193V131.727H222.284C222.443 131.223 222.716 130.835 223.102 130.562C223.492 130.286 223.937 130.148 224.437 130.148C224.551 130.148 224.678 130.153 224.818 130.165C224.962 130.172 225.081 130.186 225.176 130.205V132.097C225.089 132.066 224.951 132.04 224.761 132.017C224.576 131.991 224.396 131.977 224.221 131.977C223.846 131.977 223.509 132.059 223.21 132.222C222.915 132.381 222.682 132.602 222.511 132.886C222.341 133.17 222.256 133.498 222.256 133.869V139H220.199ZM226.862 139V130.273H228.828V131.756H228.931C229.112 131.256 229.414 130.866 229.834 130.585C230.254 130.301 230.756 130.159 231.34 130.159C231.931 130.159 232.429 130.303 232.834 130.591C233.243 130.875 233.531 131.263 233.698 131.756H233.789C233.982 131.271 234.308 130.884 234.766 130.597C235.228 130.305 235.775 130.159 236.408 130.159C237.211 130.159 237.866 130.413 238.374 130.92C238.881 131.428 239.135 132.169 239.135 133.142V139H237.073V133.46C237.073 132.919 236.929 132.523 236.641 132.273C236.353 132.019 236.001 131.892 235.584 131.892C235.088 131.892 234.7 132.047 234.419 132.358C234.143 132.665 234.004 133.064 234.004 133.557V139H231.987V133.375C231.987 132.924 231.851 132.564 231.578 132.295C231.309 132.027 230.957 131.892 230.522 131.892C230.226 131.892 229.957 131.968 229.715 132.119C229.472 132.267 229.279 132.477 229.135 132.75C228.991 133.019 228.919 133.333 228.919 133.693V139H226.862ZM244.053 139.176C243.5 139.176 243.002 139.078 242.559 138.881C242.119 138.68 241.771 138.384 241.513 137.994C241.26 137.604 241.133 137.123 241.133 136.551C241.133 136.059 241.224 135.652 241.405 135.33C241.587 135.008 241.835 134.75 242.15 134.557C242.464 134.364 242.818 134.218 243.212 134.119C243.61 134.017 244.021 133.943 244.445 133.898C244.957 133.845 245.371 133.797 245.69 133.756C246.008 133.71 246.239 133.642 246.383 133.551C246.53 133.456 246.604 133.311 246.604 133.114V133.08C246.604 132.652 246.477 132.32 246.224 132.085C245.97 131.85 245.604 131.733 245.127 131.733C244.623 131.733 244.224 131.843 243.928 132.062C243.637 132.282 243.44 132.542 243.337 132.841L241.417 132.568C241.568 132.038 241.818 131.595 242.167 131.239C242.515 130.879 242.941 130.61 243.445 130.432C243.949 130.25 244.506 130.159 245.116 130.159C245.536 130.159 245.955 130.208 246.371 130.307C246.788 130.405 247.169 130.568 247.513 130.795C247.858 131.019 248.135 131.324 248.343 131.71C248.555 132.097 248.661 132.58 248.661 133.159V139H246.684V137.801H246.616C246.491 138.044 246.315 138.271 246.087 138.483C245.864 138.691 245.582 138.86 245.241 138.989C244.904 139.114 244.508 139.176 244.053 139.176ZM244.587 137.665C245 137.665 245.358 137.583 245.661 137.42C245.964 137.254 246.197 137.034 246.36 136.761C246.527 136.489 246.61 136.191 246.61 135.869V134.841C246.546 134.894 246.436 134.943 246.28 134.989C246.129 135.034 245.958 135.074 245.769 135.108C245.58 135.142 245.392 135.172 245.207 135.199C245.021 135.225 244.86 135.248 244.724 135.267C244.417 135.309 244.142 135.377 243.9 135.472C243.657 135.566 243.466 135.699 243.326 135.869C243.186 136.036 243.116 136.252 243.116 136.517C243.116 136.896 243.254 137.182 243.53 137.375C243.807 137.568 244.159 137.665 244.587 137.665ZM255.407 130.273V131.864H250.39V130.273H255.407ZM251.629 128.182H253.686V136.375C253.686 136.652 253.727 136.864 253.811 137.011C253.898 137.155 254.011 137.254 254.152 137.307C254.292 137.36 254.447 137.386 254.617 137.386C254.746 137.386 254.864 137.377 254.97 137.358C255.08 137.339 255.163 137.322 255.22 137.307L255.566 138.915C255.457 138.953 255.299 138.994 255.095 139.04C254.894 139.085 254.648 139.112 254.356 139.119C253.841 139.134 253.377 139.057 252.964 138.886C252.551 138.712 252.224 138.443 251.981 138.08C251.742 137.716 251.625 137.261 251.629 136.716V128.182ZM257.447 139V130.273H259.504V139H257.447ZM258.482 129.034C258.156 129.034 257.875 128.926 257.641 128.71C257.406 128.491 257.288 128.227 257.288 127.92C257.288 127.61 257.406 127.347 257.641 127.131C257.875 126.911 258.156 126.801 258.482 126.801C258.811 126.801 259.091 126.911 259.322 127.131C259.557 127.347 259.675 127.61 259.675 127.92C259.675 128.227 259.557 128.491 259.322 128.71C259.091 128.926 258.811 129.034 258.482 129.034ZM265.746 139.17C264.894 139.17 264.155 138.983 263.53 138.608C262.905 138.233 262.42 137.708 262.076 137.034C261.735 136.36 261.564 135.572 261.564 134.67C261.564 133.769 261.735 132.979 262.076 132.301C262.42 131.623 262.905 131.097 263.53 130.722C264.155 130.347 264.894 130.159 265.746 130.159C266.598 130.159 267.337 130.347 267.962 130.722C268.587 131.097 269.07 131.623 269.411 132.301C269.756 132.979 269.928 133.769 269.928 134.67C269.928 135.572 269.756 136.36 269.411 137.034C269.07 137.708 268.587 138.233 267.962 138.608C267.337 138.983 266.598 139.17 265.746 139.17ZM265.758 137.523C266.22 137.523 266.606 137.396 266.917 137.142C267.227 136.884 267.458 136.54 267.61 136.108C267.765 135.676 267.843 135.195 267.843 134.665C267.843 134.131 267.765 133.648 267.61 133.216C267.458 132.78 267.227 132.434 266.917 132.176C266.606 131.919 266.22 131.79 265.758 131.79C265.284 131.79 264.89 131.919 264.576 132.176C264.265 132.434 264.032 132.78 263.877 133.216C263.725 133.648 263.65 134.131 263.65 134.665C263.65 135.195 263.725 135.676 263.877 136.108C264.032 136.54 264.265 136.884 264.576 137.142C264.89 137.396 265.284 137.523 265.758 137.523ZM274.05 133.886V139H271.994V130.273H273.96V131.756H274.062C274.263 131.267 274.583 130.879 275.022 130.591C275.465 130.303 276.013 130.159 276.664 130.159C277.266 130.159 277.791 130.288 278.238 130.545C278.689 130.803 279.037 131.176 279.283 131.665C279.533 132.153 279.657 132.746 279.653 133.443V139H277.596V133.761C277.596 133.178 277.444 132.722 277.141 132.392C276.842 132.062 276.427 131.898 275.897 131.898C275.537 131.898 275.217 131.977 274.937 132.136C274.66 132.292 274.443 132.517 274.283 132.812C274.128 133.108 274.05 133.466 274.05 133.886ZM286.443 127.364H289.023L292.477 135.795H292.614L296.068 127.364H298.648V139H296.625V131.006H296.517L293.301 138.966H291.79L288.574 130.989H288.466V139H286.443V127.364ZM301.172 139V130.273H303.229V139H301.172ZM302.207 129.034C301.881 129.034 301.6 128.926 301.366 128.71C301.131 128.491 301.013 128.227 301.013 127.92C301.013 127.61 301.131 127.347 301.366 127.131C301.6 126.911 301.881 126.801 302.207 126.801C302.536 126.801 302.816 126.911 303.047 127.131C303.282 127.347 303.4 127.61 303.4 127.92C303.4 128.227 303.282 128.491 303.047 128.71C302.816 128.926 302.536 129.034 302.207 129.034ZM307.721 133.886V139H305.664V130.273H307.63V131.756H307.732C307.933 131.267 308.253 130.879 308.693 130.591C309.136 130.303 309.683 130.159 310.335 130.159C310.937 130.159 311.462 130.288 311.909 130.545C312.359 130.803 312.708 131.176 312.954 131.665C313.204 132.153 313.327 132.746 313.323 133.443V139H311.267V133.761C311.267 133.178 311.115 132.722 310.812 132.392C310.513 132.062 310.098 131.898 309.568 131.898C309.208 131.898 308.888 131.977 308.607 132.136C308.331 132.292 308.113 132.517 307.954 132.812C307.799 133.108 307.721 133.466 307.721 133.886ZM315.734 139V130.273H317.791V139H315.734ZM316.768 129.034C316.443 129.034 316.162 128.926 315.927 128.71C315.693 128.491 315.575 128.227 315.575 127.92C315.575 127.61 315.693 127.347 315.927 127.131C316.162 126.911 316.443 126.801 316.768 126.801C317.098 126.801 317.378 126.911 317.609 127.131C317.844 127.347 317.962 127.61 317.962 127.92C317.962 128.227 317.844 128.491 317.609 128.71C317.378 128.926 317.098 129.034 316.768 129.034ZM322.283 133.886V139H320.226V130.273H322.192V131.756H322.294C322.495 131.267 322.815 130.879 323.255 130.591C323.698 130.303 324.245 130.159 324.897 130.159C325.499 130.159 326.024 130.288 326.471 130.545C326.921 130.803 327.27 131.176 327.516 131.665C327.766 132.153 327.889 132.746 327.885 133.443V139H325.828V133.761C325.828 133.178 325.677 132.722 325.374 132.392C325.075 132.062 324.66 131.898 324.13 131.898C323.77 131.898 323.45 131.977 323.169 132.136C322.893 132.292 322.675 132.517 322.516 132.812C322.361 133.108 322.283 133.466 322.283 133.886ZM334.092 142.455C333.353 142.455 332.719 142.354 332.188 142.153C331.658 141.956 331.232 141.691 330.91 141.358C330.588 141.025 330.364 140.655 330.239 140.25L332.092 139.801C332.175 139.972 332.296 140.14 332.455 140.307C332.614 140.477 332.828 140.617 333.097 140.727C333.37 140.841 333.713 140.898 334.126 140.898C334.709 140.898 335.192 140.756 335.575 140.472C335.957 140.191 336.148 139.729 336.148 139.085V137.432H336.046C335.94 137.644 335.785 137.862 335.58 138.085C335.38 138.309 335.112 138.496 334.779 138.648C334.45 138.799 334.035 138.875 333.535 138.875C332.864 138.875 332.256 138.718 331.711 138.403C331.169 138.085 330.737 137.612 330.416 136.983C330.097 136.35 329.938 135.559 329.938 134.608C329.938 133.65 330.097 132.841 330.416 132.182C330.737 131.519 331.171 131.017 331.717 130.676C332.262 130.331 332.87 130.159 333.541 130.159C334.052 130.159 334.472 130.246 334.802 130.42C335.135 130.591 335.4 130.797 335.597 131.04C335.794 131.278 335.944 131.504 336.046 131.716H336.16V130.273H338.188V139.142C338.188 139.888 338.01 140.506 337.654 140.994C337.298 141.483 336.811 141.848 336.194 142.091C335.577 142.333 334.876 142.455 334.092 142.455ZM334.109 137.261C334.544 137.261 334.916 137.155 335.222 136.943C335.529 136.731 335.762 136.426 335.921 136.028C336.08 135.631 336.16 135.153 336.16 134.597C336.16 134.047 336.08 133.566 335.921 133.153C335.766 132.741 335.535 132.42 335.228 132.193C334.925 131.962 334.552 131.847 334.109 131.847C333.65 131.847 333.268 131.966 332.961 132.205C332.654 132.443 332.423 132.771 332.268 133.188C332.112 133.6 332.035 134.07 332.035 134.597C332.035 135.131 332.112 135.598 332.268 136C332.427 136.398 332.66 136.708 332.967 136.932C333.277 137.152 333.658 137.261 334.109 137.261Z" fill="#000066"/>
</svg>
